<mxfile host="app.diagrams.net" agent="Mozilla/5.0 (Windows NT 10.0; Win64; x64) AppleWebKit/537.36 (KHTML, like Gecko) Chrome/136.0.0.0 Safari/537.36" version="27.0.5">
  <diagram id="C5RBs43oDa-KdzZeNtuy" name="Page-1">
    <mxGraphModel dx="1291" dy="835" grid="1" gridSize="10" guides="1" tooltips="1" connect="1" arrows="1" fold="1" page="1" pageScale="1" pageWidth="827" pageHeight="1169" math="0" shadow="0">
      <root>
        <mxCell id="WIyWlLk6GJQsqaUBKTNV-0" />
        <mxCell id="WIyWlLk6GJQsqaUBKTNV-1" parent="WIyWlLk6GJQsqaUBKTNV-0" />
        <mxCell id="XXpuAERPKzGZMFYxDFX5-1" style="edgeStyle=orthogonalEdgeStyle;rounded=0;orthogonalLoop=1;jettySize=auto;html=1;entryX=0.5;entryY=0;entryDx=0;entryDy=0;" edge="1" parent="WIyWlLk6GJQsqaUBKTNV-1" source="WIyWlLk6GJQsqaUBKTNV-3" target="WIyWlLk6GJQsqaUBKTNV-7">
          <mxGeometry relative="1" as="geometry" />
        </mxCell>
        <mxCell id="WIyWlLk6GJQsqaUBKTNV-3" value="Check schema workflow triggered" style="rounded=1;whiteSpace=wrap;html=1;fontSize=12;glass=0;strokeWidth=1;shadow=0;" parent="WIyWlLk6GJQsqaUBKTNV-1" vertex="1">
          <mxGeometry x="38.75" y="40" width="120" height="40" as="geometry" />
        </mxCell>
        <mxCell id="XXpuAERPKzGZMFYxDFX5-2" style="edgeStyle=orthogonalEdgeStyle;rounded=0;orthogonalLoop=1;jettySize=auto;html=1;" edge="1" parent="WIyWlLk6GJQsqaUBKTNV-1" source="WIyWlLk6GJQsqaUBKTNV-7">
          <mxGeometry relative="1" as="geometry">
            <mxPoint x="98.75" y="170" as="targetPoint" />
          </mxGeometry>
        </mxCell>
        <mxCell id="WIyWlLk6GJQsqaUBKTNV-7" value="Checkout head (working) branch&amp;nbsp;" style="rounded=1;whiteSpace=wrap;html=1;fontSize=12;glass=0;strokeWidth=1;shadow=0;" parent="WIyWlLk6GJQsqaUBKTNV-1" vertex="1">
          <mxGeometry x="38.75" y="105" width="120" height="40" as="geometry" />
        </mxCell>
        <mxCell id="XXpuAERPKzGZMFYxDFX5-5" style="edgeStyle=orthogonalEdgeStyle;rounded=0;orthogonalLoop=1;jettySize=auto;html=1;entryX=0.5;entryY=0;entryDx=0;entryDy=0;" edge="1" parent="WIyWlLk6GJQsqaUBKTNV-1" source="XXpuAERPKzGZMFYxDFX5-3" target="XXpuAERPKzGZMFYxDFX5-4">
          <mxGeometry relative="1" as="geometry" />
        </mxCell>
        <mxCell id="XXpuAERPKzGZMFYxDFX5-3" value="Checkout base branch (main)" style="rounded=1;whiteSpace=wrap;html=1;fontSize=12;glass=0;strokeWidth=1;shadow=0;" vertex="1" parent="WIyWlLk6GJQsqaUBKTNV-1">
          <mxGeometry x="38.75" y="170" width="120" height="40" as="geometry" />
        </mxCell>
        <mxCell id="XXpuAERPKzGZMFYxDFX5-8" style="edgeStyle=orthogonalEdgeStyle;rounded=0;orthogonalLoop=1;jettySize=auto;html=1;entryX=0.5;entryY=0;entryDx=0;entryDy=0;" edge="1" parent="WIyWlLk6GJQsqaUBKTNV-1" source="XXpuAERPKzGZMFYxDFX5-4" target="XXpuAERPKzGZMFYxDFX5-7">
          <mxGeometry relative="1" as="geometry" />
        </mxCell>
        <mxCell id="XXpuAERPKzGZMFYxDFX5-4" value="Set up .NET" style="rounded=1;whiteSpace=wrap;html=1;fontSize=12;glass=0;strokeWidth=1;shadow=0;" vertex="1" parent="WIyWlLk6GJQsqaUBKTNV-1">
          <mxGeometry x="38.75" y="235" width="120" height="40" as="geometry" />
        </mxCell>
        <mxCell id="XXpuAERPKzGZMFYxDFX5-22" style="edgeStyle=orthogonalEdgeStyle;rounded=0;orthogonalLoop=1;jettySize=auto;html=1;entryX=0.5;entryY=0;entryDx=0;entryDy=0;" edge="1" parent="WIyWlLk6GJQsqaUBKTNV-1" source="XXpuAERPKzGZMFYxDFX5-7" target="XXpuAERPKzGZMFYxDFX5-21">
          <mxGeometry relative="1" as="geometry" />
        </mxCell>
        <mxCell id="XXpuAERPKzGZMFYxDFX5-7" value="Generate new OpenAPI schema (based on head branch!" style="rounded=1;whiteSpace=wrap;html=1;fontSize=12;glass=0;strokeWidth=1;shadow=0;" vertex="1" parent="WIyWlLk6GJQsqaUBKTNV-1">
          <mxGeometry x="38.75" y="300" width="120" height="70" as="geometry" />
        </mxCell>
        <mxCell id="XXpuAERPKzGZMFYxDFX5-15" style="edgeStyle=orthogonalEdgeStyle;rounded=0;orthogonalLoop=1;jettySize=auto;html=1;exitX=1;exitY=0.5;exitDx=0;exitDy=0;entryX=0;entryY=0.5;entryDx=0;entryDy=0;" edge="1" parent="WIyWlLk6GJQsqaUBKTNV-1" source="XXpuAERPKzGZMFYxDFX5-9" target="XXpuAERPKzGZMFYxDFX5-13">
          <mxGeometry relative="1" as="geometry" />
        </mxCell>
        <mxCell id="XXpuAERPKzGZMFYxDFX5-16" value="No" style="edgeLabel;html=1;align=center;verticalAlign=middle;resizable=0;points=[];" vertex="1" connectable="0" parent="XXpuAERPKzGZMFYxDFX5-15">
          <mxGeometry x="-0.2248" y="-1" relative="1" as="geometry">
            <mxPoint as="offset" />
          </mxGeometry>
        </mxCell>
        <mxCell id="XXpuAERPKzGZMFYxDFX5-19" style="edgeStyle=orthogonalEdgeStyle;rounded=0;orthogonalLoop=1;jettySize=auto;html=1;entryX=0.5;entryY=0;entryDx=0;entryDy=0;" edge="1" parent="WIyWlLk6GJQsqaUBKTNV-1" source="XXpuAERPKzGZMFYxDFX5-9" target="XXpuAERPKzGZMFYxDFX5-18">
          <mxGeometry relative="1" as="geometry" />
        </mxCell>
        <mxCell id="XXpuAERPKzGZMFYxDFX5-20" value="Yes" style="edgeLabel;html=1;align=center;verticalAlign=middle;resizable=0;points=[];" vertex="1" connectable="0" parent="XXpuAERPKzGZMFYxDFX5-19">
          <mxGeometry x="-0.4392" y="-3" relative="1" as="geometry">
            <mxPoint as="offset" />
          </mxGeometry>
        </mxCell>
        <mxCell id="XXpuAERPKzGZMFYxDFX5-9" value="Found any&amp;nbsp;&lt;div&gt;uncomitted&amp;nbsp;&lt;/div&gt;&lt;div&gt;changes?&lt;/div&gt;" style="rhombus;whiteSpace=wrap;html=1;shadow=0;fontFamily=Helvetica;fontSize=12;align=center;strokeWidth=1;spacing=6;spacingTop=-4;" vertex="1" parent="WIyWlLk6GJQsqaUBKTNV-1">
          <mxGeometry x="30" y="480" width="137.5" height="110" as="geometry" />
        </mxCell>
        <mxCell id="XXpuAERPKzGZMFYxDFX5-13" value="Exit succsessfully" style="rounded=1;whiteSpace=wrap;html=1;fontSize=12;glass=0;strokeWidth=1;shadow=0;" vertex="1" parent="WIyWlLk6GJQsqaUBKTNV-1">
          <mxGeometry x="218.75" y="515" width="120" height="40" as="geometry" />
        </mxCell>
        <mxCell id="XXpuAERPKzGZMFYxDFX5-18" value="Fail workflow run" style="rounded=1;whiteSpace=wrap;html=1;fontSize=12;glass=0;strokeWidth=1;shadow=0;" vertex="1" parent="WIyWlLk6GJQsqaUBKTNV-1">
          <mxGeometry x="38.75" y="640" width="120" height="40" as="geometry" />
        </mxCell>
        <mxCell id="XXpuAERPKzGZMFYxDFX5-23" style="edgeStyle=orthogonalEdgeStyle;rounded=0;orthogonalLoop=1;jettySize=auto;html=1;entryX=0.5;entryY=0;entryDx=0;entryDy=0;" edge="1" parent="WIyWlLk6GJQsqaUBKTNV-1" source="XXpuAERPKzGZMFYxDFX5-21" target="XXpuAERPKzGZMFYxDFX5-9">
          <mxGeometry relative="1" as="geometry" />
        </mxCell>
        <mxCell id="XXpuAERPKzGZMFYxDFX5-21" value="Compare main schema and head schema" style="rounded=1;whiteSpace=wrap;html=1;fontSize=12;glass=0;strokeWidth=1;shadow=0;" vertex="1" parent="WIyWlLk6GJQsqaUBKTNV-1">
          <mxGeometry x="38.75" y="390" width="120" height="70" as="geometry" />
        </mxCell>
      </root>
    </mxGraphModel>
  </diagram>
</mxfile>
